<svg viewBox="0 0 240 240" xmlns="http://www.w3.org/2000/svg" role="img" aria-label="マスコットキャラクター メバエちゃん(調べもの中)">
  <ellipse cx="120" cy="215" rx="55" ry="10" fill="#4d9a7a" opacity="0.08"/>
  <path d="M120 40 q26 34 26 58 a26 26 0 1 1 -52 0 q0 -24 26 -58 Z" fill="#eafaf0" stroke="#4d9a7a" stroke-width="6"/>
  <path d="M60 80 h120 a10 10 0 0 1 10 10 v80 a10 10 0 0 1 -10 10 H60 a10 10 0 0 1 -10 -10 V90 a10 10 0 0 1 10 -10 Z"
        fill="#fff8ea" stroke="#4d9a7a" stroke-width="6"/>
  <circle cx="90" cy="150" r="10" fill="#4d9a7a" opacity="0.3"/>
  <circle cx="150" cy="150" r="10" fill="#4d9a7a" opacity="0.3"/>
  <path d="M93 132 q7 -8 14 0" stroke="#24242b" stroke-width="5" fill="none" stroke-linecap="round"/>
  <path d="M133 132 q7 -8 14 0" stroke="#24242b" stroke-width="5" fill="none" stroke-linecap="round"/>
  <circle cx="120" cy="160" r="6" fill="#2f6b52"/>
  <circle cx="176" cy="96" r="22" fill="none" stroke="#e0973c" stroke-width="6"/>
  <path d="M192 112 l14 14" stroke="#e0973c" stroke-width="7" stroke-linecap="round"/>
  <path d="M62 188 q-16 4 -20 18" stroke="#4d9a7a" stroke-width="6" fill="none" stroke-linecap="round"/>
  <path d="M178 188 q16 4 20 18" stroke="#4d9a7a" stroke-width="6" fill="none" stroke-linecap="round"/>
</svg>
