<svg viewBox="0 0 240 240" xmlns="http://www.w3.org/2000/svg" role="img" aria-label="マスコットキャラクター メバエちゃん">
  <ellipse cx="120" cy="215" rx="55" ry="10" fill="#4d9a7a" opacity="0.08"/>
  <path d="M120 40 q26 34 26 58 a26 26 0 1 1 -52 0 q0 -24 26 -58 Z" fill="#eafaf0" stroke="#4d9a7a" stroke-width="6"/>
  <path d="M60 80 h120 a10 10 0 0 1 10 10 v80 a10 10 0 0 1 -10 10 H60 a10 10 0 0 1 -10 -10 V90 a10 10 0 0 1 10 -10 Z"
        fill="#fff8ea" stroke="#4d9a7a" stroke-width="6"/>
  <circle cx="90" cy="150" r="10" fill="#4d9a7a" opacity="0.3"/>
  <circle cx="150" cy="150" r="10" fill="#4d9a7a" opacity="0.3"/>
  <circle cx="100" cy="132" r="7" fill="#24242b"/>
  <circle cx="140" cy="132" r="7" fill="#24242b"/>
  <circle cx="102.5" cy="129" r="2.2" fill="#fff"/>
  <circle cx="142.5" cy="129" r="2.2" fill="#fff"/>
  <path d="M108 158 Q120 168 132 158" stroke="#2f6b52" stroke-width="4" fill="none" stroke-linecap="round"/>
  <path d="M62 188 q-16 4 -20 18" stroke="#4d9a7a" stroke-width="6" fill="none" stroke-linecap="round"/>
  <path d="M178 188 q16 4 20 18" stroke="#4d9a7a" stroke-width="6" fill="none" stroke-linecap="round"/>
</svg>
