<svg viewBox="0 0 240 240" xmlns="http://www.w3.org/2000/svg" role="img" aria-label="マスコットキャラクター デンミンちゃん(リサーチポーズ)">
  <ellipse cx="120" cy="215" rx="55" ry="10" fill="#3e53da" opacity="0.08"/>
  <path d="M120 30 C 165 85, 185 125, 185 150 C 185 188, 155 210, 120 210 C 85 210, 55 188, 55 150 C 55 125, 75 85, 120 30 Z" fill="#e5e8fa" stroke="#3e53da" stroke-width="6" stroke-linejoin="round"/>
  <circle cx="86" cy="150" r="10" fill="#3e53da" opacity="0.35"/>
  <circle cx="154" cy="150" r="10" fill="#3e53da" opacity="0.35"/>
  <path d="M91 132 Q98 124 105 132" stroke="#24242b" stroke-width="5" fill="none" stroke-linecap="round"/>
  <path d="M135 132 Q142 124 149 132" stroke="#24242b" stroke-width="5" fill="none" stroke-linecap="round"/>
  <path d="M104 156 Q120 174 136 156" stroke="#3e53da" stroke-width="4" fill="none" stroke-linecap="round"/>
  <circle cx="172" cy="103" r="14" fill="none" stroke="#e0c829" stroke-width="5"/><path d="M166 116 L178 116" stroke="#e0c829" stroke-width="4" stroke-linecap="round"/><path d="M168 122 L176 122" stroke="#e0c829" stroke-width="4" stroke-linecap="round"/><path d="M172 84 L172 78" stroke="#e0c829" stroke-width="4" stroke-linecap="round"/><path d="M156 92 L151 87" stroke="#e0c829" stroke-width="4" stroke-linecap="round"/><path d="M188 92 L193 87" stroke="#e0c829" stroke-width="4" stroke-linecap="round"/><circle cx="70" cy="95" r="4" fill="#e0c829"/>
  <circle cx="182" cy="150" r="26" fill="none" stroke="#e0c829" stroke-width="7"/>
  <line x1="200" y1="168" x2="214" y2="182" stroke="#e0c829" stroke-width="7" stroke-linecap="round"/>
  <path d="M155 190 q10 -12 27 -20" stroke="#3e53da" stroke-width="6" fill="none" stroke-linecap="round"/>
  <path d="M62 178 q-18 4 -22 20" stroke="#3e53da" stroke-width="6" fill="none" stroke-linecap="round"/>
</svg>
