<svg viewBox="0 0 240 240" xmlns="http://www.w3.org/2000/svg" role="img" aria-label="マスコットキャラクター カルミンちゃん">
  <ellipse cx="120" cy="215" rx="55" ry="10" fill="#29992c" opacity="0.08"/>
  <path d="M120 30 C 165 85, 185 125, 185 150 C 185 188, 155 210, 120 210 C 85 210, 55 188, 55 150 C 55 125, 75 85, 120 30 Z" fill="#e3f7e4" stroke="#29992c" stroke-width="6" stroke-linejoin="round"/>
  <circle cx="86" cy="150" r="10" fill="#29992c" opacity="0.35"/>
  <circle cx="154" cy="150" r="10" fill="#29992c" opacity="0.35"/>
  <circle cx="98" cy="132" r="7" fill="#24242b"/>
  <circle cx="142" cy="132" r="7" fill="#24242b"/>
  <circle cx="100.5" cy="129" r="2.2" fill="#fff"/>
  <circle cx="144.5" cy="129" r="2.2" fill="#fff"/>
  <path d="M108 158 Q120 168 132 158" stroke="#29992c" stroke-width="4" fill="none" stroke-linecap="round"/>
  <path d="M172 86 C192 94 192 120 172 132 C152 120 152 94 172 86 Z" fill="#e029da"/><line x1="172" y1="90" x2="172" y2="128" stroke="#fff" stroke-width="2" opacity="0.6"/><circle cx="70" cy="95" r="4" fill="#e029da"/>
  <path d="M62 178 q-18 4 -22 20" stroke="#29992c" stroke-width="6" fill="none" stroke-linecap="round"/>
  <path d="M178 178 q18 4 22 20" stroke="#29992c" stroke-width="6" fill="none" stroke-linecap="round"/>
</svg>
